<?xml version="1.0" encoding="UTF-8" ?>
<!DOCTYPE svg PUBLIC "-//W3C//DTD SVG 1.1//EN" "http://www.w3.org/Graphics/SVG/1.1/DTD/svg11.dtd">
<svg width="640pt" height="640pt" viewBox="0 0 640 640" version="1.1" xmlns="http://www.w3.org/2000/svg">
<path fill="#fdfdfd" d=" M 0.00 0.00 L 640.00 0.00 L 640.00 640.00 L 0.00 640.00 L 0.00 0.00 Z" />
<path fill="#db0908" d=" M 222.43 24.97 C 223.00 22.17 224.05 18.68 226.98 17.51 C 233.86 18.79 240.06 22.42 245.76 26.35 C 247.80 28.21 250.38 27.74 252.53 26.37 C 256.83 30.96 259.78 36.58 263.21 41.80 C 267.83 48.68 271.50 56.13 276.03 63.07 C 276.92 64.55 277.82 66.02 278.71 67.49 C 282.13 67.62 285.55 67.68 288.98 67.70 C 295.19 81.86 298.56 97.13 300.70 112.39 C 289.74 116.77 281.97 126.57 277.36 137.15 C 272.87 147.09 270.94 158.11 271.23 169.00 C 270.96 184.80 275.46 201.16 285.65 213.46 C 282.98 215.87 279.88 217.77 276.45 218.88 C 275.77 207.57 274.22 196.06 269.02 185.84 C 264.04 175.17 255.45 165.15 243.67 162.09 C 233.33 159.36 222.30 163.50 215.01 170.99 C 204.97 181.15 199.80 195.22 198.14 209.21 C 196.59 219.24 198.01 229.37 199.83 239.25 C 192.45 241.89 185.05 244.88 178.86 249.80 C 174.06 253.73 168.89 257.36 163.01 259.45 C 159.62 260.33 155.60 257.71 155.61 254.08 C 155.55 251.44 155.22 248.79 155.42 246.15 C 156.38 242.48 158.88 239.47 160.40 236.03 C 157.59 237.41 154.95 239.13 152.04 240.30 C 147.35 241.00 142.58 240.83 137.86 240.61 C 137.04 239.33 136.23 238.05 135.44 236.76 C 135.14 236.94 134.85 237.13 134.56 237.32 C 134.93 233.04 133.25 228.63 134.86 224.50 C 137.83 216.05 143.24 208.74 148.79 201.82 C 149.85 200.43 150.77 198.94 151.62 197.40 C 144.13 198.48 136.73 201.97 129.06 200.14 C 124.63 198.49 124.45 192.80 124.42 188.78 C 123.70 182.64 129.66 178.67 130.64 172.97 C 130.99 170.63 132.82 168.86 135.03 168.19 C 139.18 166.65 142.24 163.33 145.50 160.50 C 156.95 150.88 170.39 144.09 183.87 137.82 C 184.95 137.14 186.68 136.83 186.67 135.26 C 183.29 133.34 179.56 132.16 175.86 131.03 C 165.57 128.12 155.10 125.88 144.59 123.89 C 141.19 123.08 137.14 121.94 135.70 118.37 C 133.85 115.01 134.50 111.04 134.75 107.39 C 135.95 103.92 139.69 102.37 142.75 100.90 C 149.89 98.08 157.27 95.39 165.04 95.24 C 178.45 94.84 191.99 95.92 204.96 99.48 C 209.92 100.51 214.66 102.82 219.82 102.59 C 216.37 97.28 210.92 93.79 206.07 89.89 C 199.42 84.50 191.26 81.48 184.18 76.78 C 180.43 74.27 179.81 69.59 180.51 65.46 C 182.66 62.48 184.90 58.73 189.19 59.42 C 194.68 60.37 200.23 61.40 205.32 63.76 C 211.93 66.61 217.89 70.75 224.56 73.47 C 228.15 75.14 232.21 74.68 236.04 74.52 C 238.21 74.36 241.25 73.69 241.25 70.96 C 240.53 62.22 237.57 53.65 232.46 46.49 C 228.47 39.73 221.55 33.52 222.43 24.97 Z" />
<path fill="#b7b0ae" d=" M 245.76 26.35 C 247.11 25.65 248.46 24.91 249.91 24.40 C 250.86 24.93 251.74 25.59 252.53 26.37 C 250.38 27.74 247.80 28.21 245.76 26.35 Z" />
<path fill="#b7b0ae" d=" M 180.51 65.46 C 178.53 60.34 185.33 56.95 189.19 59.42 C 184.90 58.73 182.66 62.48 180.51 65.46 Z" />
<path fill="#b7b0ae" d=" M 276.03 63.07 C 277.36 64.18 278.71 65.27 280.06 66.35 C 281.95 65.55 283.83 64.58 285.89 64.29 C 287.74 64.34 288.12 66.45 288.98 67.70 C 285.55 67.68 282.13 67.62 278.71 67.49 C 277.82 66.02 276.92 64.55 276.03 63.07 Z" />
<path fill="#0e0e0e" d=" M 308.46 155.61 C 312.85 154.38 316.94 157.80 318.18 161.84 C 320.52 168.17 319.68 176.66 313.87 180.85 C 309.29 183.41 303.73 180.07 302.51 175.29 C 300.08 168.63 301.09 158.55 308.46 155.61 Z" />
<path fill="#fcdd0f" d=" M 333.73 214.73 C 340.60 209.27 341.97 199.95 346.87 193.08 C 355.68 197.88 360.18 207.67 363.30 216.76 C 364.53 220.91 367.86 224.38 367.68 228.90 C 367.67 236.95 367.87 245.05 367.10 253.07 C 365.56 260.28 363.07 267.28 360.39 274.15 C 359.14 277.70 358.13 281.39 356.14 284.63 C 354.66 280.85 353.46 276.97 352.06 273.16 C 349.59 267.02 345.82 261.45 341.45 256.50 C 333.70 250.60 323.47 250.47 314.21 249.30 C 307.18 247.79 299.78 247.75 292.77 249.39 C 289.33 250.03 285.67 249.89 282.48 251.50 C 279.17 253.07 275.95 254.86 272.94 256.94 C 271.93 258.67 271.32 260.60 270.27 262.31 C 267.89 264.01 264.75 264.50 262.75 266.76 C 256.44 273.12 250.09 279.51 244.59 286.61 C 240.72 291.47 238.21 297.22 235.89 302.94 C 233.13 310.46 230.06 317.87 227.85 325.58 C 225.77 333.15 222.89 340.48 221.15 348.15 C 219.31 347.55 217.38 347.41 215.46 347.48 C 215.53 338.73 221.11 331.37 221.94 322.77 C 222.74 317.77 222.51 311.94 218.19 308.55 C 213.77 312.36 209.45 316.63 207.31 322.17 C 203.46 332.31 200.22 342.67 197.09 353.05 C 195.64 358.38 190.71 361.66 188.75 366.71 C 186.67 371.90 185.21 377.31 183.69 382.69 C 181.98 389.04 179.40 395.28 179.44 401.96 C 179.51 416.66 178.48 431.34 178.18 446.03 C 177.82 450.06 180.39 453.31 183.07 455.97 C 185.87 454.81 188.55 453.40 191.13 451.83 C 191.02 445.94 190.39 440.02 191.30 434.16 C 192.54 425.99 193.09 417.74 194.39 409.58 C 195.54 402.30 196.10 394.68 199.83 388.14 C 203.06 387.82 206.29 387.57 209.54 387.57 C 209.36 389.63 209.20 391.71 208.89 393.77 C 207.60 398.80 205.80 403.70 204.66 408.77 C 202.77 417.05 199.35 425.33 200.75 433.98 C 201.40 437.29 201.11 440.82 202.10 444.05 C 205.06 447.29 208.11 450.58 211.73 453.12 C 215.63 453.98 219.73 453.34 223.65 454.26 C 225.08 458.01 226.53 462.35 224.11 466.06 C 219.18 473.97 210.48 478.54 201.90 481.48 C 185.76 482.65 169.20 474.24 160.83 460.31 C 159.21 457.58 158.64 454.40 157.98 451.35 C 157.66 447.48 157.48 443.60 157.10 439.74 C 156.24 432.46 158.45 425.31 158.56 418.04 C 159.05 403.09 162.07 388.33 166.78 374.15 C 168.88 365.05 173.63 356.96 177.24 348.43 C 181.03 339.65 185.06 330.95 189.79 322.63 C 193.45 315.90 199.54 310.91 203.06 304.09 C 209.34 293.96 214.11 282.97 219.65 272.44 C 221.31 271.32 223.05 272.74 224.53 273.46 C 230.57 277.30 238.31 276.88 245.01 275.28 C 253.04 273.33 258.78 266.99 263.86 260.90 C 272.53 248.70 275.68 233.58 276.45 218.88 C 279.88 217.77 282.98 215.87 285.65 213.46 C 289.74 216.23 292.46 220.61 296.78 223.09 C 299.59 224.63 302.67 225.83 305.92 225.83 C 311.07 225.92 316.50 226.42 321.32 224.21 C 326.53 222.63 329.49 217.76 333.73 214.73 Z" />
<path fill="#0e0e0e" d=" M 235.28 205.99 C 237.14 205.14 239.12 206.12 240.78 206.97 C 245.30 210.39 246.31 216.65 245.64 221.95 C 245.04 226.07 243.02 230.68 238.75 232.05 C 235.32 233.21 231.79 230.82 230.08 227.95 C 226.99 222.53 227.04 215.49 230.12 210.08 C 231.32 208.20 233.09 206.57 235.28 205.99 Z" />
<path fill="#b7b0ae" d=" M 198.51 308.46 C 199.99 306.97 201.49 305.48 203.06 304.09 C 199.54 310.91 193.45 315.90 189.79 322.63 C 185.06 330.95 181.03 339.65 177.24 348.43 C 173.63 356.96 168.88 365.05 166.78 374.15 C 162.07 388.33 159.05 403.09 158.56 418.04 C 158.45 425.31 156.24 432.46 157.10 439.74 C 157.48 443.60 157.66 447.48 157.98 451.35 L 158.05 452.22 C 154.11 438.00 158.64 423.51 158.59 409.15 C 158.97 402.71 160.55 396.43 161.37 390.05 C 153.48 392.94 145.46 396.34 139.47 402.44 C 133.17 408.80 126.62 415.05 121.51 422.44 C 111.67 438.18 104.00 455.12 95.64 471.66 C 90.52 481.68 84.58 491.24 78.92 500.96 C 75.34 506.90 71.99 513.09 67.02 518.03 C 64.02 521.03 61.65 526.74 56.48 525.45 C 53.03 523.85 51.19 519.76 51.25 516.07 C 50.91 505.04 54.01 494.19 58.00 484.01 C 60.65 477.05 64.99 470.94 67.98 464.15 C 58.74 465.76 50.70 472.43 41.07 471.69 C 37.41 471.56 36.49 467.21 35.77 464.36 C 34.27 459.14 37.78 454.54 40.31 450.33 C 44.83 443.05 50.28 436.37 56.82 430.81 C 60.79 426.87 65.81 423.98 69.05 419.34 C 60.92 415.47 51.94 413.69 42.98 413.44 C 40.05 413.20 36.43 412.94 34.70 410.19 C 32.46 406.62 34.36 402.34 35.28 398.64 C 35.71 396.47 37.88 395.53 39.60 394.55 C 47.10 390.65 54.67 386.88 62.35 383.37 C 67.51 381.01 72.98 379.39 78.06 376.84 C 71.11 370.53 62.90 365.86 54.88 361.08 C 51.69 359.31 49.39 355.86 49.57 352.16 C 50.65 349.18 51.88 346.16 53.74 343.58 C 55.71 342.76 57.91 343.13 59.98 343.15 C 68.35 343.66 76.80 343.68 85.06 342.03 C 94.69 341.06 104.31 339.69 114.01 339.81 C 127.15 339.95 140.67 339.73 153.14 335.07 C 161.34 331.96 170.22 329.84 177.14 324.15 C 180.40 321.43 184.21 319.03 186.19 315.13 C 187.53 312.61 188.99 309.92 191.72 308.68 C 193.76 307.18 196.27 308.12 198.51 308.46 Z" />
<path fill="#ee6b2b" d=" M 207.31 322.17 C 209.45 316.63 213.77 312.36 218.19 308.55 C 222.51 311.94 222.74 317.77 221.94 322.77 C 221.11 331.37 215.53 338.73 215.46 347.48 C 217.38 347.41 219.31 347.55 221.15 348.15 C 220.35 349.04 219.55 349.94 218.74 350.82 C 214.06 349.10 208.33 348.72 204.52 352.52 C 199.98 357.00 194.60 362.07 194.70 368.98 C 194.52 375.41 192.93 381.78 193.81 388.23 C 195.82 388.25 197.83 388.27 199.83 388.14 C 196.10 394.68 195.54 402.30 194.39 409.58 C 193.09 417.74 192.54 425.99 191.30 434.16 C 190.39 440.02 191.02 445.94 191.13 451.83 C 188.55 453.40 185.87 454.81 183.07 455.97 C 180.39 453.31 177.82 450.06 178.18 446.03 C 178.48 431.34 179.51 416.66 179.44 401.96 C 179.40 395.28 181.98 389.04 183.69 382.69 C 185.21 377.31 186.67 371.90 188.75 366.71 C 190.71 361.66 195.64 358.38 197.09 353.05 C 200.22 342.67 203.46 332.31 207.31 322.17 Z" />
<path fill="#0e0e0e" d=" M 431.27 325.94 C 434.81 324.23 438.05 327.33 439.76 330.17 C 441.83 334.49 443.09 339.17 444.08 343.84 C 444.40 338.76 447.28 334.26 450.52 330.52 C 454.31 326.19 461.58 326.57 465.57 330.42 C 470.22 334.63 473.15 340.66 473.71 346.90 C 475.48 359.88 472.53 372.96 474.18 385.94 C 474.36 391.72 474.91 398.38 471.14 403.22 C 469.66 405.67 467.06 403.17 464.95 403.44 C 462.29 403.61 459.96 402.29 457.56 401.40 C 456.40 398.40 456.54 395.17 456.43 392.03 C 456.37 382.02 455.24 371.97 452.50 362.33 C 452.61 365.96 451.33 369.42 450.91 373.00 C 450.17 377.18 450.79 381.68 448.72 385.55 C 446.26 389.66 447.85 394.57 446.92 399.02 C 446.23 402.90 444.07 406.27 442.20 409.67 C 439.03 408.69 435.92 407.33 432.53 407.43 C 428.59 403.29 429.07 397.35 429.76 392.12 C 430.66 387.74 432.78 383.56 432.53 379.00 C 432.35 370.95 431.88 362.85 430.35 354.94 C 429.93 355.58 429.59 356.27 429.34 356.99 C 426.83 366.45 425.34 376.19 425.27 385.99 C 424.67 391.30 424.67 397.00 421.74 401.69 C 420.95 403.50 418.98 404.78 416.99 404.52 C 415.49 403.56 414.10 402.46 412.65 401.44 C 410.84 393.16 412.87 384.88 414.33 376.73 C 414.60 366.13 416.01 355.55 418.96 345.34 C 421.09 338.02 423.86 329.46 431.27 325.94 Z" />
<path fill="#0e0e0e" d=" M 512.72 331.83 C 518.51 330.60 525.01 329.50 530.41 332.64 C 535.34 335.79 540.80 339.51 541.95 345.71 C 543.90 355.32 542.41 366.31 536.09 374.09 C 533.45 378.28 530.59 382.79 525.81 384.78 C 521.25 387.03 516.06 386.39 511.15 386.64 C 513.90 396.05 522.73 404.49 533.05 403.57 C 537.29 403.98 540.00 399.52 544.12 399.42 C 546.16 399.39 548.62 399.07 549.99 400.98 C 552.94 405.13 551.46 410.75 549.49 415.01 C 546.93 417.45 543.62 418.97 540.31 420.10 C 535.60 421.77 531.14 424.60 526.00 424.65 C 521.08 424.73 515.85 425.01 511.36 422.65 C 504.72 419.14 499.76 413.07 496.36 406.48 C 491.97 397.66 491.74 387.61 491.45 377.98 C 491.75 373.19 493.17 368.57 493.92 363.86 C 495.27 355.74 499.28 348.45 503.30 341.40 C 505.58 337.52 508.52 333.74 512.72 331.83 Z" />
<path fill="#0e0e0e" d=" M 373.23 331.96 C 378.46 330.74 384.40 331.79 388.42 335.53 C 393.45 340.12 397.64 345.81 399.93 352.26 C 403.53 363.43 402.79 375.79 398.55 386.69 C 395.26 395.29 386.43 402.31 376.96 401.55 C 370.47 401.66 364.78 397.06 361.56 391.74 C 357.14 383.14 359.25 373.22 359.81 364.03 C 361.14 355.00 361.25 345.28 366.35 337.35 C 367.86 334.75 370.38 332.86 373.23 331.96 Z" />
<path fill="#b7b0ae" d=" M 221.15 348.15 C 225.05 350.90 229.82 352.31 233.30 355.68 C 237.59 359.78 241.23 364.54 244.28 369.62 C 245.83 372.12 246.58 375.02 246.66 377.95 C 247.00 386.39 247.12 395.09 244.25 403.16 C 242.81 407.22 239.11 410.34 234.96 411.36 C 230.65 410.96 226.77 408.03 224.88 404.18 C 222.17 398.89 221.34 392.43 216.79 388.25 C 215.30 386.67 213.09 386.55 211.07 386.72 C 210.49 389.10 210.28 391.67 208.89 393.77 C 209.20 391.71 209.36 389.63 209.54 387.57 C 206.29 387.57 203.06 387.82 199.83 388.14 C 197.83 388.27 195.82 388.25 193.81 388.23 C 192.93 381.78 194.52 375.41 194.70 368.98 C 194.60 362.07 199.98 357.00 204.52 352.52 C 208.33 348.72 214.06 349.10 218.74 350.82 C 219.55 349.94 220.35 349.04 221.15 348.15 Z" />
<path fill="#fdfdfd" d=" M 520.99 351.07 C 525.21 348.06 531.50 353.38 528.96 357.96 C 527.01 364.44 519.26 366.29 513.30 365.38 C 514.89 360.21 516.99 354.86 520.99 351.07 Z" />
<path fill="#0e0e0e" d=" M 290.88 359.58 C 292.64 355.48 296.36 351.63 301.07 351.51 C 308.44 350.68 315.70 352.84 322.43 355.63 C 329.34 358.49 334.42 364.69 337.35 371.38 C 338.76 375.73 334.22 378.07 332.40 381.36 C 331.21 381.39 330.02 381.42 328.84 381.45 C 328.61 383.66 328.47 386.08 326.73 387.69 C 325.10 390.10 322.22 386.53 320.10 388.31 C 316.76 383.95 316.62 377.51 312.00 374.19 C 311.00 376.58 310.13 379.04 309.76 381.61 C 308.21 392.64 308.34 403.82 308.48 414.94 C 308.34 417.19 310.49 418.69 312.17 419.78 C 316.84 421.86 322.06 422.48 327.14 422.57 C 331.03 418.10 334.08 413.00 337.00 407.87 C 339.43 403.10 339.84 396.88 344.64 393.67 C 347.58 391.60 350.10 387.84 354.15 388.52 C 355.26 394.26 356.62 400.12 359.59 405.22 C 360.85 415.59 355.97 425.70 349.67 433.66 C 343.70 441.68 334.30 447.99 324.00 447.73 C 315.68 448.03 308.33 442.95 302.68 437.32 C 293.40 427.17 288.24 413.60 286.80 400.04 C 286.41 386.51 285.54 372.34 290.88 359.58 Z" />
<path fill="#fdfdfd" d=" M 378.56 351.02 C 382.11 352.42 383.63 356.35 383.49 359.95 C 383.36 364.49 383.02 369.21 380.98 373.35 C 377.75 372.57 376.71 368.97 376.60 366.04 C 376.47 360.99 376.58 355.75 378.56 351.02 Z" />
<path fill="#db0908" d=" M 202.63 362.02 C 203.73 358.76 207.11 356.93 210.01 355.43 C 217.63 358.64 224.66 363.79 229.12 370.84 C 230.09 373.27 229.43 376.03 229.53 378.60 C 227.35 378.54 225.18 378.48 223.01 378.39 C 223.56 379.68 224.12 380.96 224.67 382.26 C 218.69 377.94 213.15 372.32 205.43 371.44 C 204.52 368.29 203.34 365.21 202.63 362.02 Z" />
<path fill="#0e0e0e" d=" M 392.58 428.34 C 393.94 428.47 395.58 428.18 396.36 429.61 C 398.09 431.80 401.23 433.65 400.51 436.88 C 399.20 449.06 401.73 461.14 403.07 473.20 C 405.03 488.08 406.45 503.02 407.34 518.00 C 407.46 523.05 407.47 528.11 408.17 533.12 C 409.00 543.19 409.08 553.88 414.27 562.89 C 415.29 565.37 418.03 566.35 420.48 566.80 C 421.49 564.04 422.12 561.16 423.27 558.47 C 424.70 558.49 426.13 558.50 427.57 558.49 C 429.50 562.54 428.14 567.07 428.61 571.35 C 429.81 568.33 429.61 565.02 430.20 561.87 C 431.59 565.83 430.55 570.08 430.03 574.10 C 429.10 578.75 428.97 583.65 427.16 588.07 C 423.89 590.90 419.55 592.02 416.03 594.49 C 412.77 593.21 409.63 591.28 407.87 588.15 C 399.66 574.64 395.02 559.31 392.08 543.86 C 390.03 531.09 389.09 518.19 388.39 505.29 C 386.06 487.91 384.83 470.41 382.78 453.00 C 382.45 448.56 383.51 444.20 383.73 439.78 C 385.21 439.50 386.69 439.22 388.16 438.93 C 388.49 438.03 388.83 437.13 389.16 436.24 C 390.15 433.54 391.27 430.89 392.58 428.34 Z" />
<path fill="#b7b0ae" d=" M 385.95 435.31 C 387.02 435.62 388.09 435.93 389.16 436.24 C 388.83 437.13 388.49 438.03 388.16 438.93 C 386.69 439.22 385.21 439.50 383.73 439.78 C 384.23 438.18 385.01 436.69 385.95 435.31 Z" />
<path fill="#b7b0ae" d=" M 496.69 444.36 C 497.87 443.13 499.04 441.89 500.21 440.65 C 502.85 441.87 505.71 443.07 507.53 445.46 C 507.93 447.02 507.69 448.64 507.64 450.23 C 505.95 447.12 502.83 445.28 500.07 443.25 C 497.77 445.72 494.92 447.63 491.47 447.89 C 491.10 450.23 490.80 452.59 490.74 454.97 C 490.49 469.40 491.07 483.85 490.50 498.28 C 490.13 482.83 490.55 467.37 490.27 451.92 C 490.31 449.60 490.21 446.92 491.87 445.08 C 493.35 444.34 495.08 444.55 496.69 444.36 Z" />
<path fill="#0e0e0e" d=" M 416.18 448.06 C 422.33 444.07 429.64 441.74 437.01 442.29 C 441.02 442.03 445.79 443.51 447.47 447.50 C 448.72 450.17 450.19 452.74 451.66 455.30 C 454.16 459.72 453.94 465.13 456.83 469.39 C 458.70 469.07 460.59 469.62 460.90 471.78 C 465.05 486.16 462.15 501.32 463.44 516.02 C 464.07 520.28 467.16 523.47 469.81 526.63 C 471.29 526.57 472.77 526.55 474.26 526.57 C 475.88 530.08 476.05 534.02 476.33 537.82 C 474.47 541.91 471.37 545.35 467.88 548.14 C 462.16 549.92 456.33 547.45 451.91 543.82 C 446.78 543.31 441.51 545.48 436.46 543.77 C 431.17 542.02 425.55 539.72 422.31 534.93 C 419.91 531.81 418.84 527.89 418.65 524.01 C 418.09 515.03 418.41 505.79 421.20 497.18 C 424.09 490.45 427.59 483.90 432.14 478.14 C 435.03 474.70 439.91 475.59 443.89 475.28 C 441.47 471.39 438.31 467.51 433.80 466.09 C 428.38 466.64 421.99 470.19 420.96 476.00 C 420.44 479.47 416.77 481.06 413.98 482.46 C 409.98 482.38 407.59 477.76 408.31 474.08 C 406.06 468.79 410.56 464.17 410.85 458.96 C 411.24 454.85 412.75 450.58 416.18 448.06 Z" />
<path fill="#0e0e0e" d=" M 500.07 443.25 C 502.83 445.28 505.95 447.12 507.64 450.23 C 508.82 452.50 510.20 454.68 511.32 456.99 C 511.91 466.62 507.48 475.54 506.29 484.95 C 504.51 496.32 502.31 507.66 501.24 519.12 C 506.89 513.79 512.94 508.93 518.59 503.62 C 520.74 502.63 522.00 505.94 524.18 505.50 C 524.72 505.47 525.80 505.41 526.34 505.38 C 528.10 507.62 530.13 509.97 529.57 513.05 C 527.30 514.82 525.11 516.70 523.04 518.71 C 525.39 517.69 527.72 516.58 530.25 516.04 C 524.62 521.99 516.15 524.40 510.79 530.74 C 510.03 532.36 510.21 534.21 510.28 535.95 C 511.23 545.71 514.86 554.89 518.30 563.99 C 519.95 568.09 519.77 572.60 519.54 576.94 C 519.53 580.65 515.70 584.27 511.94 583.05 C 508.48 578.40 506.98 572.64 505.87 567.04 C 504.80 560.25 501.53 554.11 499.51 547.60 C 499.04 546.30 498.48 545.04 497.93 543.78 C 497.41 553.45 497.02 563.40 493.11 572.43 C 492.91 571.08 492.72 569.73 492.56 568.39 C 491.58 570.10 490.87 573.66 488.19 572.47 C 483.88 571.60 482.84 566.92 483.66 563.19 C 483.11 564.37 482.53 565.54 481.93 566.72 C 481.58 562.84 481.54 558.92 482.06 555.06 C 484.83 544.90 486.29 534.46 487.58 524.03 C 488.55 515.44 490.01 506.91 490.50 498.28 C 491.07 483.85 490.49 469.40 490.74 454.97 C 490.80 452.59 491.10 450.23 491.47 447.89 C 494.92 447.63 497.77 445.72 500.07 443.25 Z" />
<path fill="#0e0e0e" d=" M 542.21 482.15 C 548.06 479.95 553.42 475.23 560.09 476.47 C 565.65 476.81 567.05 483.25 568.58 487.54 C 572.15 497.15 573.67 507.29 576.07 517.20 C 577.63 526.04 577.72 535.12 576.58 544.02 C 576.12 550.56 575.22 557.22 572.46 563.24 C 571.07 565.94 571.41 569.04 571.35 571.98 C 571.38 575.86 571.08 579.77 571.70 583.63 C 573.61 583.49 576.04 581.32 577.59 583.28 C 580.38 585.91 579.23 589.88 579.57 593.29 C 580.18 598.36 575.05 601.10 571.25 603.10 C 567.80 603.45 564.14 604.02 560.74 603.12 C 559.08 601.51 557.45 599.74 556.53 597.60 C 555.34 593.91 555.87 589.97 555.60 586.16 C 552.23 586.80 548.49 588.42 545.21 586.58 C 539.63 584.22 536.96 578.39 534.43 573.29 C 530.28 564.82 530.26 555.03 531.33 545.86 C 531.73 537.80 534.86 529.45 541.53 524.52 C 544.92 521.65 549.67 522.36 553.76 522.66 C 558.91 524.06 561.95 529.08 563.44 533.89 C 563.72 528.10 564.07 522.22 563.29 516.47 C 561.32 510.57 558.42 504.56 553.40 500.66 C 547.94 499.52 544.33 504.31 541.89 508.42 C 539.59 508.65 537.24 509.00 534.95 508.49 C 532.28 507.17 532.65 503.91 533.23 501.51 C 532.80 500.98 532.36 500.45 531.94 499.93 C 532.16 498.52 532.36 497.11 532.61 495.72 C 534.26 490.46 536.60 484.25 542.21 482.15 Z" />
<path fill="#0e0e0e" d=" M 334.55 492.76 C 337.38 486.94 342.17 481.26 348.96 480.37 C 353.41 480.01 358.57 479.67 362.09 482.96 C 365.84 485.85 367.41 490.41 369.60 494.41 C 374.93 502.40 378.81 511.59 379.42 521.26 C 380.86 532.18 379.73 543.24 380.97 554.18 C 381.44 557.50 380.91 561.70 383.94 563.96 C 386.58 566.69 390.75 569.38 389.87 573.77 C 390.11 577.07 387.30 579.96 383.99 579.82 C 380.42 580.35 377.65 577.76 374.98 575.85 C 374.38 576.17 373.79 576.51 373.21 576.86 C 368.29 580.60 361.82 580.86 355.91 580.27 C 350.16 578.63 344.58 574.56 342.61 568.77 C 341.61 557.28 340.16 545.48 342.95 534.14 C 344.34 527.33 345.54 519.86 350.48 514.59 C 353.89 511.88 358.62 512.68 362.69 512.51 C 362.01 510.15 361.49 507.72 360.41 505.51 C 357.82 502.13 353.76 499.63 349.36 500.15 C 343.00 508.50 342.87 520.48 334.55 527.46 C 330.76 527.51 328.95 523.52 327.89 520.48 C 326.04 510.75 330.02 501.17 334.55 492.76 Z" />
<path fill="#0e0e0e" d=" M 288.91 503.79 C 291.71 498.20 295.77 492.54 301.97 490.53 C 304.91 490.08 308.72 489.53 310.74 492.28 C 315.17 496.64 315.74 503.15 318.67 508.38 C 321.96 514.70 322.40 522.03 322.30 529.03 C 322.20 544.39 324.95 559.64 324.27 575.01 C 323.59 579.27 323.03 584.59 318.62 586.69 C 315.01 589.28 311.38 584.97 310.23 581.83 C 308.73 573.28 310.56 564.60 310.17 556.00 C 309.61 547.05 310.24 537.90 307.65 529.21 C 306.87 526.71 305.88 523.83 303.18 522.88 C 298.51 535.78 295.79 549.28 294.17 562.88 C 292.86 568.58 294.38 574.54 292.78 580.19 C 292.18 583.08 292.54 586.06 292.18 588.98 C 289.59 591.07 286.06 592.33 285.07 595.85 C 282.79 595.63 280.05 596.23 278.27 594.45 C 277.18 593.49 276.43 592.23 275.70 591.00 C 274.60 585.68 271.93 580.61 272.52 575.02 C 272.12 567.22 277.25 559.17 273.28 551.67 C 269.69 544.30 267.17 536.22 261.99 529.76 C 259.30 532.57 258.15 536.39 257.29 540.08 C 255.29 550.26 253.68 560.60 254.23 571.01 C 254.67 578.00 253.68 584.93 253.48 591.91 C 253.33 595.30 251.67 598.34 250.30 601.37 C 247.49 601.98 245.10 600.59 242.81 599.17 C 240.98 591.97 241.43 584.48 239.76 577.24 C 237.71 569.14 236.29 560.89 234.16 552.82 C 237.52 549.92 240.08 546.28 241.21 541.95 C 241.87 529.24 244.82 516.30 251.46 505.32 C 254.31 500.24 260.50 496.80 266.24 498.91 C 270.75 501.26 273.56 505.69 276.21 509.86 C 279.18 514.40 281.27 519.52 282.19 524.88 C 282.92 517.49 285.73 510.45 288.91 503.79 Z" />
<path fill="#b7b0ae" d=" M 531.36 505.62 C 530.36 502.30 530.79 498.66 532.61 495.72 C 532.36 497.11 532.16 498.52 531.94 499.93 C 532.36 500.45 532.80 500.98 533.23 501.51 C 532.65 503.91 532.28 507.17 534.95 508.49 C 537.24 509.00 539.59 508.65 541.89 508.42 C 540.23 509.93 538.50 511.74 536.11 511.87 C 533.13 511.37 532.00 508.17 531.36 505.62 Z" />
<path fill="#fdfdfd" d=" M 440.53 499.66 C 443.47 498.76 447.15 499.23 449.00 501.95 C 452.22 507.69 447.52 515.55 440.98 515.57 C 437.72 516.12 434.23 512.59 435.53 509.33 C 436.27 505.76 436.12 500.75 440.53 499.66 Z" />
<path fill="#fdfdfd" d=" M 358.33 534.09 C 361.45 534.28 364.43 535.29 367.48 535.95 C 368.07 542.21 369.95 548.53 368.71 554.83 C 368.01 558.17 364.78 561.46 361.13 560.58 C 356.89 560.59 354.48 556.31 353.51 552.73 C 354.02 546.34 355.21 539.78 358.33 534.09 Z" />
<path fill="#fdfdfd" d=" M 549.26 544.08 C 549.73 542.84 550.98 542.25 551.96 541.49 C 553.94 548.01 553.83 555.46 558.42 560.92 C 555.85 564.35 553.03 567.98 548.97 569.67 C 544.64 568.19 543.71 562.83 542.35 559.02 C 545.56 554.50 546.96 549.06 549.26 544.08 Z" />
<path fill="#b7b0ae" d=" M 497.93 543.78 C 498.48 545.04 499.04 546.30 499.51 547.60 C 499.22 547.69 498.64 547.87 498.35 547.96 C 497.57 557.20 497.75 567.01 493.39 575.45 C 490.46 577.98 487.34 574.83 485.12 572.95 C 479.76 568.78 479.94 560.85 482.06 555.06 C 481.54 558.92 481.58 562.84 481.93 566.72 C 482.53 565.54 483.11 564.37 483.66 563.19 C 482.84 566.92 483.88 571.60 488.19 572.47 C 490.87 573.66 491.58 570.10 492.56 568.39 C 492.72 569.73 492.91 571.08 493.11 572.43 C 497.02 563.40 497.41 553.45 497.93 543.78 Z" />
<path fill="#b7b0ae" d=" M 383.94 563.96 C 385.84 563.68 387.75 563.30 389.68 563.43 C 392.54 565.75 392.72 569.92 391.96 573.27 C 391.40 577.24 388.75 580.98 385.01 582.51 C 380.27 583.32 376.37 579.89 373.21 576.86 C 373.79 576.51 374.38 576.17 374.98 575.85 C 377.65 577.76 380.42 580.35 383.99 579.82 C 387.30 579.96 390.11 577.07 389.87 573.77 C 390.75 569.38 386.58 566.69 383.94 563.96 Z" />
<path fill="#b7b0ae" d=" M 275.70 591.00 C 276.43 592.23 277.18 593.49 278.27 594.45 C 280.05 596.23 282.79 595.63 285.07 595.85 C 285.59 598.44 282.26 599.89 280.17 599.06 C 277.36 597.42 275.58 594.27 275.70 591.00 Z" />
</svg>
